<svg width="1115" height="457" viewBox="0 0 1115 457" fill="none" xmlns="http://www.w3.org/2000/svg">
<path d="M985.314 456.98C969.57 456.98 953.827 455.012 938.084 451.076C922.698 447.14 908.744 440.342 896.221 430.682C884.056 421.021 874.037 408.14 866.166 392.039C858.294 375.938 854.358 355.722 854.358 331.392C854.358 322.447 855.074 311.713 856.505 299.19C857.936 286.667 860.62 273.786 864.556 260.547C868.849 247.308 874.574 234.249 881.73 221.368C889.244 208.129 898.905 196.322 910.712 185.945C922.519 175.569 936.832 167.161 953.648 160.72C970.465 154.28 990.502 151.06 1013.76 151.06C1032.36 151.06 1048.11 153.207 1060.99 157.5C1073.87 161.794 1084.25 167.698 1092.12 175.211C1099.99 182.367 1105.71 190.776 1109.29 200.436C1112.87 210.097 1114.66 220.473 1114.66 231.565C1114.66 248.024 1111.26 261.978 1104.46 273.428C1098.02 284.878 1089.43 294.538 1078.7 302.41C1068.32 309.924 1056.7 315.827 1043.81 320.121C1030.93 324.415 1018.23 327.814 1005.71 330.318C993.185 332.465 981.557 333.896 970.823 334.612C960.446 334.97 952.396 335.149 946.671 335.149C946.671 341.947 947.566 348.745 949.355 355.543C951.501 361.984 954.543 367.709 958.479 372.718C962.414 377.727 967.602 381.842 974.043 385.062C980.483 388.282 988.355 389.892 997.658 389.892C1006.96 389.892 1014.12 388.461 1019.13 385.599C1024.49 382.378 1028.79 378.979 1032.01 375.401C1035.23 371.465 1037.91 368.066 1040.06 365.204C1042.56 361.984 1045.78 360.374 1049.72 360.374C1051.51 360.374 1054.55 360.91 1058.84 361.984C1063.49 362.699 1068.14 364.488 1072.8 367.351C1077.45 370.213 1081.56 374.149 1085.14 379.158C1088.72 384.167 1090.51 390.608 1090.51 398.48C1090.51 408.856 1087.29 417.801 1080.85 425.315C1074.41 432.828 1066 438.911 1055.62 443.562C1045.6 448.214 1034.33 451.613 1021.81 453.76C1009.29 455.907 997.121 456.98 985.314 456.98ZM995.511 222.441C987.639 222.441 980.841 224.767 975.116 229.418C969.749 233.712 965.098 239.258 961.162 246.056C957.584 252.854 954.722 260.368 952.575 268.598C950.786 276.827 949.355 284.699 948.281 292.212C970.465 291.855 988.355 288.098 1001.95 280.942C1015.91 273.786 1022.88 263.588 1022.88 250.35C1022.88 243.194 1020.56 236.753 1015.91 231.028C1011.61 225.304 1004.81 222.441 995.511 222.441Z" fill="url(#paint0_linear_644_6210)"/>
<path d="M832.43 440.726C821.338 440.726 812.214 439.652 805.058 437.505C798.26 435.001 792.714 431.602 788.421 427.308C784.485 423.014 781.622 417.826 779.833 411.744C778.402 405.303 777.687 397.968 777.687 389.739C777.687 384.372 777.865 376.858 778.223 367.197C778.939 357.179 780.012 343.583 781.443 326.408C782.875 308.876 784.485 286.871 786.274 260.394C788.421 233.559 790.925 200.462 793.788 161.104C794.145 153.232 795.04 148.581 796.471 147.15C797.545 146.076 800.407 145.539 805.058 145.539H825.99C837.082 145.539 846.027 146.613 852.825 148.76C859.981 150.906 865.527 154.127 869.463 158.42C873.756 162.714 876.619 167.902 878.05 173.985C879.839 180.067 880.733 186.865 880.733 194.379C880.733 199.746 880.376 207.797 879.66 218.531C878.944 229.265 877.871 243.935 876.44 262.54C875.366 280.788 873.756 303.688 871.609 331.238C869.463 358.431 866.779 391.349 863.559 429.992C863.201 434.285 862.307 437.148 860.875 438.579C859.444 440.01 856.403 440.726 851.751 440.726H832.43ZM794.324 82.2086C794.324 67.8965 799.512 56.6258 809.889 48.3963C820.265 40.1669 834.219 36.0522 851.751 36.0522C867.137 36.0522 878.229 39.2724 885.027 45.7128C892.183 51.7954 895.761 60.0249 895.761 70.4011C895.761 83.6398 890.752 94.7316 880.733 103.677C871.073 112.264 856.761 116.558 837.797 116.558C808.815 116.558 794.324 105.108 794.324 82.2086Z" fill="url(#paint1_linear_644_6210)"/>
<path d="M687.751 378.085C692.044 363.057 695.98 348.208 699.558 333.539C703.494 318.869 707.251 303.304 710.829 286.845C714.765 270.029 718.879 251.781 723.173 232.102C727.824 212.065 733.191 189.345 739.274 163.941C740.347 158.931 741.958 155.711 744.104 154.28C746.251 152.491 750.903 151.596 758.059 151.596C763.426 151.596 770.582 151.775 779.527 152.133C788.472 152.491 797.238 153.743 805.825 155.89C814.412 158.037 821.747 161.257 827.83 165.551C834.27 169.844 837.491 175.748 837.491 183.262C837.491 189.345 835.344 199.184 831.05 212.781C826.756 226.377 821.211 241.941 814.412 259.474C807.614 276.648 799.921 294.717 791.334 313.681C783.105 332.644 775.054 350.534 767.182 367.351C759.311 384.167 751.976 399.016 745.178 411.897C738.38 424.42 733.37 433.186 730.15 438.195C727.288 442.131 724.783 444.457 722.636 445.173C720.489 445.888 716.911 446.246 711.902 446.246H664.136C656.622 446.246 650.36 444.994 645.351 442.489C640.7 439.627 636.764 436.049 633.544 431.755C630.324 427.461 627.64 422.631 625.493 417.264C623.346 411.539 621.378 405.636 619.589 399.553C609.213 363.773 600.089 333.181 592.218 307.777C584.704 282.015 578.263 260.547 572.896 243.373C567.529 226.198 563.236 212.602 560.015 202.583C556.795 192.207 554.291 184.335 552.502 178.968C550.713 173.243 549.46 169.487 548.745 167.698C548.029 165.551 547.671 164.12 547.671 163.404C548.029 160.899 549.818 158.216 553.038 155.353C556.259 152.491 560.373 151.06 565.382 151.06C581.841 151.06 595.796 151.775 607.245 153.207C619.053 154.28 628.713 156.427 636.227 159.647C644.099 162.867 650.003 167.34 653.938 173.065C658.232 178.789 661.273 186.303 663.062 195.606C663.42 198.111 664.136 203.12 665.209 210.634C666.282 218.148 667.356 227.271 668.429 238.006C669.861 248.382 671.471 260.01 673.26 272.891C675.049 285.414 676.659 298.116 678.09 310.997C679.879 323.52 681.489 335.685 682.92 347.493C684.709 359.3 686.319 369.498 687.751 378.085Z" fill="url(#paint2_linear_644_6210)"/>
<path d="M444.318 456.98C419.63 456.98 399.056 453.581 382.597 446.783C366.496 439.627 353.615 429.966 343.955 417.801C334.294 405.636 327.496 391.502 323.56 375.401C319.624 358.942 317.656 341.41 317.656 322.804C317.656 301.336 320.161 280.405 325.17 260.01C330.537 239.258 339.482 220.831 352.005 204.73C364.528 188.629 380.987 175.748 401.382 166.087C422.134 156.069 447.896 151.06 478.667 151.06C523.75 151.06 555.952 162.152 575.273 184.335C594.952 206.161 604.792 236.932 604.792 276.648C604.792 287.74 603.897 300.084 602.108 313.681C600.677 326.919 597.636 340.158 592.984 353.397C588.691 366.635 582.608 379.516 574.736 392.039C567.223 404.562 557.562 415.654 545.755 425.315C533.947 434.975 519.635 442.668 502.818 448.393C486.359 454.118 466.859 456.98 444.318 456.98ZM469.543 222.441C455.946 222.441 445.033 226.019 436.804 233.175C428.932 239.973 422.85 248.382 418.556 258.4C414.62 268.061 411.937 278.437 410.506 289.529C409.432 300.263 408.895 309.387 408.895 316.901C408.895 340.516 412.652 357.869 420.166 368.961C427.68 380.053 438.414 385.599 452.368 385.599C464.891 385.599 475.089 381.663 482.96 373.791C491.19 365.92 497.451 356.438 501.745 345.346C506.396 334.254 509.438 322.626 510.869 310.46C512.658 298.295 513.552 288.098 513.552 279.868C513.552 261.978 510.153 248.024 503.355 238.006C496.915 227.629 485.644 222.441 469.543 222.441Z" fill="url(#paint3_linear_644_6210)"/>
<path d="M340.269 94.9963C337.407 103.584 333.65 114.854 328.998 128.809C324.705 142.405 319.875 157.433 314.507 173.892C309.14 190.35 303.595 207.883 297.87 226.488C292.145 244.736 286.241 262.626 280.159 280.159C274.434 297.691 268.709 314.507 262.984 330.609C257.259 346.352 252.071 360.127 247.42 371.935C245.988 374.797 242.947 377.123 238.296 378.912C234.002 380.343 227.025 381.059 217.364 381.059C211.282 381.059 205.02 380.701 198.58 379.985C192.139 379.27 186.057 377.838 180.332 375.692C174.965 373.545 170.135 370.682 165.841 367.104C161.905 363.526 158.864 359.054 156.717 353.687C151.35 335.439 146.162 315.223 141.153 293.039C136.501 270.498 131.85 247.599 127.198 224.342C122.547 201.084 117.896 178.364 113.244 156.18C108.951 133.639 104.478 113.244 99.8266 94.9963C99.8266 100.005 99.6477 108.593 99.2899 120.758C98.9321 132.923 98.5743 147.056 98.2165 163.157C97.8587 179.259 97.322 196.612 96.6064 215.218C96.2486 233.823 95.8908 252.071 95.533 269.961C95.1752 287.493 94.8174 303.952 94.4596 319.338C94.1018 334.365 93.9229 346.71 93.9229 356.37C93.9229 367.104 93.2073 373.903 91.7761 376.765C90.7027 379.627 88.5559 381.059 85.3356 381.059H55.817C35.4223 381.059 20.9314 377.123 12.3441 369.251C4.11472 361.022 0 349.035 0 333.292C0 328.998 0.178901 321.842 0.536702 311.824C1.25231 301.448 2.14681 289.282 3.22021 275.328C4.29362 261.374 5.36702 246.167 6.44043 229.709C7.87163 212.892 9.30284 195.896 10.734 178.722C12.5231 155.465 13.9543 136.143 15.0277 120.758C16.4589 105.015 17.5323 91.955 18.2479 81.5787C18.9635 71.2025 19.5002 62.7942 19.858 56.3537C20.5736 49.9133 20.9314 44.1885 20.9314 39.1793C21.2892 34.1701 21.4681 29.5186 21.4681 25.225C21.8259 20.5736 22.0048 14.8488 22.0048 8.05053C22.0048 5.18814 23.0782 3.22023 25.225 2.14682C27.3718 0.715609 29.3397 0 31.1287 0H106.267C120.221 0 131.671 2.32571 140.616 6.97713C149.561 11.2707 156.896 18.069 162.621 27.3718C168.346 36.6746 172.997 48.8399 176.575 63.8676C180.153 78.5374 183.373 96.0697 186.236 116.464C189.456 136.859 192.855 160.474 196.433 187.309C200.369 213.786 205.378 243.663 211.461 276.938C217.185 254.755 222.016 236.328 225.952 221.658C229.887 206.988 233.108 194.823 235.612 185.162C238.475 175.144 240.8 166.914 242.589 160.474C244.378 154.034 245.988 148.13 247.42 142.763C248.851 137.038 250.461 130.955 252.25 124.515C254.039 118.074 256.186 110.024 258.69 100.363C261.195 90.7027 264.236 78.7163 267.814 64.4043C271.75 49.7344 276.581 31.3076 282.305 9.12395C283.021 6.97713 284.273 5.0092 286.062 3.2202C287.851 1.0734 291.071 0 295.723 0H379.448C390.898 0 400.022 1.25231 406.82 3.75694C413.976 5.90374 419.522 9.12393 423.458 13.4175C427.394 17.7112 430.077 23.0782 431.509 29.5186C432.94 35.6012 433.655 42.7573 433.655 50.9867C433.655 59.2162 433.119 72.6337 432.045 91.2394C431.33 109.487 430.077 130.24 428.288 153.497C426.857 176.396 425.247 200.19 423.458 224.878C404.137 252.625 396.117 244.957 394.328 266.067C392.897 287.178 395.401 328.069 394.328 342.739C393.254 357.409 413.082 370.503 412.724 373.008C412.366 375.87 411.651 378.017 410.577 379.448C409.504 380.522 407.357 381.059 404.137 381.059H374.618C354.223 381.059 339.732 377.123 331.145 369.251C322.916 361.022 318.801 350.467 318.801 337.586C318.801 333.65 319.159 326.494 319.875 316.118C320.948 305.741 322.2 293.576 323.631 279.622C325.063 265.668 354.203 244.19 355.992 227.732C357.781 210.915 346.531 241.337 347.962 224.878C349.394 208.419 335.976 151.708 337.049 136.322C338.48 120.579 339.554 106.804 340.269 94.9963Z" fill="url(#paint4_linear_644_6210)"/>
<defs>
<linearGradient id="paint0_linear_644_6210" x1="557.329" y1="0" x2="557.329" y2="456.98" gradientUnits="userSpaceOnUse">
<stop stop-color="#E8CFB2"/>
<stop offset="1" stop-color="#DC7801"/>
</linearGradient>
<linearGradient id="paint1_linear_644_6210" x1="557.329" y1="0" x2="557.329" y2="456.98" gradientUnits="userSpaceOnUse">
<stop stop-color="#E8CFB2"/>
<stop offset="1" stop-color="#DC7801"/>
</linearGradient>
<linearGradient id="paint2_linear_644_6210" x1="557.329" y1="0" x2="557.329" y2="456.98" gradientUnits="userSpaceOnUse">
<stop stop-color="#E8CFB2"/>
<stop offset="1" stop-color="#DC7801"/>
</linearGradient>
<linearGradient id="paint3_linear_644_6210" x1="557.329" y1="0" x2="557.329" y2="456.98" gradientUnits="userSpaceOnUse">
<stop stop-color="#E8CFB2"/>
<stop offset="1" stop-color="#DC7801"/>
</linearGradient>
<linearGradient id="paint4_linear_644_6210" x1="557.329" y1="0" x2="557.329" y2="456.98" gradientUnits="userSpaceOnUse">
<stop stop-color="#E8CFB2"/>
<stop offset="1" stop-color="#DC7801"/>
</linearGradient>
</defs>
</svg>
